<?xml version="1.0" ?><!DOCTYPE svg  PUBLIC '-//W3C//DTD SVG 1.1//EN'  'http://www.w3.org/Graphics/SVG/1.1/DTD/svg11.dtd'><svg height="64px" id="ICONS" style="enable-background:new 0 0 64 64;" version="1.1" viewBox="0 0 64 64" width="64px" xml:space="preserve" xmlns="http://www.w3.org/2000/svg" xmlns:xlink="http://www.w3.org/1999/xlink"><g><line style="fill:none;stroke:#FF6D00;stroke-width:2;stroke-linecap:round;stroke-linejoin:round;stroke-miterlimit:10;" x1="32" x2="32" y1="4" y2="60"/><line style="fill:none;stroke:#FF6D00;stroke-width:2;stroke-linecap:round;stroke-linejoin:round;stroke-miterlimit:10;" x1="13.616" x2="50.383" y1="13.617" y2="50.383"/><line style="fill:none;stroke:#FF6D00;stroke-width:2;stroke-linecap:round;stroke-linejoin:round;stroke-miterlimit:10;" x1="4" x2="60" y1="32" y2="32"/><line style="fill:none;stroke:#FF6D00;stroke-width:2;stroke-linecap:round;stroke-linejoin:round;stroke-miterlimit:10;" x1="13.617" x2="50.383" y1="50.383" y2="13.617"/><path d="   M32,19.165c-0.01,0.173-0.01,0.356,0,0.53c0.038,1.309,0.559,2.59,1.531,3.572c1.646,1.656,4.169,2.041,6.229,0.972" style="fill:none;stroke:#FF6D00;stroke-width:2;stroke-linecap:round;stroke-linejoin:round;stroke-miterlimit:10;"/><path d="   M32,11.77c0.414,1.695,1.261,3.293,2.542,4.622c2.754,2.869,6.855,3.793,10.486,2.581" style="fill:none;stroke:#FF6D00;stroke-width:2;stroke-linecap:round;stroke-linejoin:round;stroke-miterlimit:10;"/><path d="   M50.381,13.619c-0.009,0.01-0.009,0.01-0.009,0.01c-4.574,1.588-9.783,0.905-13.876-2.157C34.522,9.998,33.011,8.111,32,6.002" style="fill:none;stroke:#FF6D00;stroke-width:2;stroke-linecap:round;stroke-linejoin:round;stroke-miterlimit:10;"/><path d="   M22.924,22.924c0.116,0.129,0.246,0.258,0.375,0.375c0.953,0.898,2.227,1.437,3.607,1.443c2.336,0.007,4.393-1.505,5.093-3.717" style="fill:none;stroke:#FF6D00;stroke-width:2;stroke-linecap:round;stroke-linejoin:round;stroke-miterlimit:10;"/><path d="   M17.695,17.695c1.491,0.906,3.22,1.437,5.064,1.471c3.978,0.082,7.53-2.165,9.24-5.59" style="fill:none;stroke:#FF6D00;stroke-width:2;stroke-linecap:round;stroke-linejoin:round;stroke-miterlimit:10;"/><path d="M32,6   v0.019c-2.111,4.357-6.278,7.558-11.336,8.286c-2.438,0.354-4.842,0.086-7.048-0.69" style="fill:none;stroke:#FF6D00;stroke-width:2;stroke-linecap:round;stroke-linejoin:round;stroke-miterlimit:10;"/><path d="   M19.165,32c0.173,0.009,0.356,0.009,0.529,0c1.31-0.038,2.59-0.559,3.571-1.53c1.656-1.646,2.042-4.17,0.972-6.229" style="fill:none;stroke:#FF6D00;stroke-width:2;stroke-linecap:round;stroke-linejoin:round;stroke-miterlimit:10;"/><path d="   M11.77,32c1.695-0.414,3.293-1.26,4.621-2.541c2.87-2.755,3.794-6.856,2.581-10.487" style="fill:none;stroke:#FF6D00;stroke-width:2;stroke-linecap:round;stroke-linejoin:round;stroke-miterlimit:10;"/><path d="   M13.616,13.617l0.012,0.012c1.589,4.574,0.904,9.783-2.157,13.875C9.998,29.478,8.109,30.989,5.999,32" style="fill:none;stroke:#FF6D00;stroke-width:2;stroke-linecap:round;stroke-linejoin:round;stroke-miterlimit:10;"/><path d="   M22.924,41.076c0.129-0.115,0.259-0.245,0.374-0.375c0.899-0.953,1.437-2.226,1.444-3.607c0.007-2.336-1.505-4.393-3.719-5.092" style="fill:none;stroke:#FF6D00;stroke-width:2;stroke-linecap:round;stroke-linejoin:round;stroke-miterlimit:10;"/><path d="   M17.695,46.306c0.905-1.492,1.437-3.22,1.471-5.065c0.08-3.977-2.165-7.53-5.591-9.24" style="fill:none;stroke:#FF6D00;stroke-width:2;stroke-linecap:round;stroke-linejoin:round;stroke-miterlimit:10;"/><path d="M6,32   h0.019c4.356,1.926,7.556,6.279,8.286,11.336c0.354,2.438,0.086,4.842-0.69,7.048" style="fill:none;stroke:#FF6D00;stroke-width:2;stroke-linecap:round;stroke-linejoin:round;stroke-miterlimit:10;"/><path d="   M32,44.835c0.01-0.173,0.01-0.356-0.001-0.529c-0.037-1.31-0.559-2.59-1.53-3.572c-1.646-1.657-4.169-2.042-6.229-0.972" style="fill:none;stroke:#FF6D00;stroke-width:2;stroke-linecap:round;stroke-linejoin:round;stroke-miterlimit:10;"/><path d="   M32,52.231c-0.415-1.695-1.261-3.293-2.542-4.622c-2.755-2.87-6.854-3.795-10.486-2.582" style="fill:none;stroke:#FF6D00;stroke-width:2;stroke-linecap:round;stroke-linejoin:round;stroke-miterlimit:10;"/><path d="   M13.617,50.383l0.011-0.012c4.442-1.719,9.782-0.903,13.875,2.157c1.975,1.475,3.485,3.362,4.496,5.472" style="fill:none;stroke:#FF6D00;stroke-width:2;stroke-linecap:round;stroke-linejoin:round;stroke-miterlimit:10;"/><path d="   M41.076,41.076c-0.116-0.129-0.246-0.258-0.376-0.373c-0.953-0.9-2.227-1.437-3.606-1.444c-2.336-0.007-4.393,1.504-5.093,3.717" style="fill:none;stroke:#FF6D00;stroke-width:2;stroke-linecap:round;stroke-linejoin:round;stroke-miterlimit:10;"/><path d="   M46.305,46.305c-1.491-0.905-3.22-1.437-5.064-1.47c-3.978-0.082-7.53,2.164-9.24,5.589" style="fill:none;stroke:#FF6D00;stroke-width:2;stroke-linecap:round;stroke-linejoin:round;stroke-miterlimit:10;"/><path d="   M32,58v-0.018c1.925-4.357,6.278-7.556,11.335-8.286c2.439-0.353,4.843-0.085,7.049,0.691" style="fill:none;stroke:#FF6D00;stroke-width:2;stroke-linecap:round;stroke-linejoin:round;stroke-miterlimit:10;"/><path d="   M44.835,32c-0.174-0.01-0.356-0.009-0.529,0.001c-1.311,0.038-2.59,0.559-3.571,1.529c-1.656,1.646-2.042,4.169-0.972,6.23" style="fill:none;stroke:#FF6D00;stroke-width:2;stroke-linecap:round;stroke-linejoin:round;stroke-miterlimit:10;"/><path d="   M52.229,32c-1.694,0.415-3.292,1.261-4.62,2.542c-2.87,2.755-3.794,6.854-2.581,10.486" style="fill:none;stroke:#FF6D00;stroke-width:2;stroke-linecap:round;stroke-linejoin:round;stroke-miterlimit:10;"/><path d="   M50.383,50.383l-0.011-0.012c-1.72-4.442-0.904-9.782,2.156-13.874c1.475-1.975,3.362-3.486,5.472-4.497" style="fill:none;stroke:#FF6D00;stroke-width:2;stroke-linecap:round;stroke-linejoin:round;stroke-miterlimit:10;"/><path d="   M41.076,22.924c-0.131,0.116-0.259,0.245-0.374,0.375c-0.9,0.954-1.437,2.226-1.444,3.607c-0.007,2.335,1.505,4.392,3.719,5.093" style="fill:none;stroke:#FF6D00;stroke-width:2;stroke-linecap:round;stroke-linejoin:round;stroke-miterlimit:10;"/><path d="   M46.305,17.696c-0.905,1.491-1.437,3.219-1.471,5.064c-0.081,3.978,2.164,7.53,5.591,9.24" style="fill:none;stroke:#FF6D00;stroke-width:2;stroke-linecap:round;stroke-linejoin:round;stroke-miterlimit:10;"/><path d="   M58,32h-0.019c-4.357-1.925-7.556-6.278-8.286-11.335c-0.354-2.439-0.086-4.843,0.69-7.049" style="fill:none;stroke:#FF6D00;stroke-width:2;stroke-linecap:round;stroke-linejoin:round;stroke-miterlimit:10;"/></g></svg>